<svg xmlns="http://www.w3.org/2000/svg" width="15" height="13" fill="none" viewBox="0 0 15 13"><path fill="#000" stroke="#000" stroke-linecap="round" stroke-linejoin="round" d="M1.5192 1.91411C1.52827 1.87686 1.53736 1.84046 1.54646 1.80496C2.18485 2.55322 2.95062 3.17405 3.80806 3.63264C4.95432 4.24569 6.2275 4.54896 7.51377 4.51352C7.78445 4.50606 8 4.28449 8 4.01371V3.28922H8.00004L7.99996 3.28291C7.99278 2.71369 8.15047 2.15823 8.44839 1.69192C8.7461 1.22591 9.16793 0.873429 9.65297 0.676712C10.1375 0.480191 10.6655 0.446892 11.1672 0.580281C11.6693 0.713772 12.1258 1.00922 12.4722 1.43244C12.6022 1.59126 12.816 1.65451 13.0115 1.59197C13.3631 1.47947 13.7061 1.3415 14.0383 1.17934C13.8182 1.59788 13.5431 1.98254 13.2201 2.32097C13.1099 2.43645 13.0615 2.59759 13.0897 2.75468C13.1201 2.92385 13.1358 3.09576 13.1364 3.26816C13.1362 7.2737 11.3413 10.085 8.87317 11.4809C6.85354 12.6231 4.33995 12.843 1.89448 11.9479C3.0247 11.7199 4.10485 11.2484 5.06522 10.5557C5.20873 10.4521 5.28685 10.2805 5.27062 10.1043C5.2544 9.92808 5.14625 9.77358 4.98624 9.69801C2.11889 8.34388 1.34556 6.17902 1.26659 4.33285C1.22655 3.39692 1.36685 2.54006 1.5192 1.91411Z"/></svg>