<svg width="15" height="16" viewBox="0 0 15 16" fill="none" xmlns="http://www.w3.org/2000/svg">
<mask id="path-1-inside-1" fill="white">
<path d="M5.38462 13.7172C1.53846 14.8586 1.53846 11.8149 0 11.4344L5.38462 13.7172ZM10.7692 16V13.0552C10.7981 12.6923 10.7485 12.3276 10.6239 11.9852C10.4992 11.6427 10.3023 11.3305 10.0462 11.0691C12.4615 10.8028 15 9.89731 15 5.74261C14.9998 4.68022 14.5867 3.65856 13.8462 2.88911C14.1968 1.95963 14.172 0.932252 13.7769 0.0203878C13.7769 0.0203878 12.8692 -0.245939 10.7692 1.14657C9.00616 0.673894 7.14769 0.673894 5.38462 1.14657C3.28462 -0.245939 2.37692 0.0203878 2.37692 0.0203878C1.98183 0.932252 1.95703 1.95963 2.30769 2.88911C1.56164 3.66427 1.14809 4.69516 1.15385 5.76544C1.15385 9.8897 3.69231 10.7952 6.10769 11.092C5.85461 11.3507 5.65943 11.6592 5.53485 11.9974C5.41027 12.3357 5.35908 12.6961 5.38462 13.0552V16"/>
</mask>
<path d="M5.38462 13.7172C1.53846 14.8586 1.53846 11.8149 0 11.4344L5.38462 13.7172ZM10.7692 16V13.0552C10.7981 12.6923 10.7485 12.3276 10.6239 11.9852C10.4992 11.6427 10.3023 11.3305 10.0462 11.0691C12.4615 10.8028 15 9.89731 15 5.74261C14.9998 4.68022 14.5867 3.65856 13.8462 2.88911C14.1968 1.95963 14.172 0.932252 13.7769 0.0203878C13.7769 0.0203878 12.8692 -0.245939 10.7692 1.14657C9.00616 0.673894 7.14769 0.673894 5.38462 1.14657C3.28462 -0.245939 2.37692 0.0203878 2.37692 0.0203878C1.98183 0.932252 1.95703 1.95963 2.30769 2.88911C1.56164 3.66427 1.14809 4.69516 1.15385 5.76544C1.15385 9.8897 3.69231 10.7952 6.10769 11.092C5.85461 11.3507 5.65943 11.6592 5.53485 11.9974C5.41027 12.3357 5.35908 12.6961 5.38462 13.0552V16" fill="black"/>
<path d="M5.38462 13.7172L5.66912 14.6759C6.07366 14.5558 6.35931 14.1947 6.38303 13.7734C6.40676 13.3521 6.16345 12.9612 5.77494 12.7965L5.38462 13.7172ZM0 11.4344L0.240071 10.4636C-0.266251 10.3384 -0.78378 10.6234 -0.948696 11.1182C-1.11361 11.613 -0.870525 12.1515 -0.390321 12.3551L0 11.4344ZM9.76923 16C9.76923 16.5523 10.2169 17 10.7692 17C11.3215 17 11.7692 16.5523 11.7692 16H9.76923ZM10.7692 13.0552L9.77238 12.9759C9.77028 13.0023 9.76923 13.0287 9.76923 13.0552H10.7692ZM10.0462 11.0691L9.93656 10.0752C9.55613 10.1171 9.23301 10.3725 9.10435 10.733C8.97569 11.0935 9.06406 11.4957 9.33195 11.7691L10.0462 11.0691ZM15 5.74261H16V5.74243L15 5.74261ZM13.8462 2.88911L12.9105 2.53613C12.7743 2.89722 12.858 3.30447 13.1256 3.58254L13.8462 2.88911ZM13.7769 0.0203878H12.7769C12.7769 0.157153 12.805 0.292464 12.8594 0.417956L13.7769 0.0203878ZM10.7692 1.14657L10.5103 2.11246C10.7873 2.18673 11.0829 2.13848 11.3219 1.97999L10.7692 1.14657ZM5.38462 1.14657L4.83197 1.97999C5.07099 2.13848 5.36656 2.18673 5.64357 2.11246L5.38462 1.14657ZM2.37692 0.0203878L2.09538 -0.939161C1.81045 -0.855559 1.57741 -0.649649 1.45935 -0.377181L2.37692 0.0203878ZM2.30769 2.88911L3.0282 3.58256C3.29583 3.30449 3.37955 2.89723 3.24332 2.53613L2.30769 2.88911ZM1.15385 5.76544H2.15386L2.15383 5.76007L1.15385 5.76544ZM6.10769 11.092L6.82252 11.7913C7.08849 11.5194 7.17721 11.1202 7.05142 10.7613C6.92564 10.4023 6.60713 10.1458 6.22964 10.0994L6.10769 11.092ZM5.38462 13.0552H6.38462C6.38462 13.0315 6.38378 13.0079 6.3821 12.9843L5.38462 13.0552ZM4.38462 16C4.38462 16.5523 4.83233 17 5.38462 17C5.9369 17 6.38462 16.5523 6.38462 16H4.38462ZM5.10011 12.7585C4.25132 13.0104 3.7122 13.0023 3.36257 12.9213C3.02611 12.8434 2.77493 12.6777 2.53019 12.4356C2.40205 12.3088 2.27952 12.1649 2.14388 11.9968C2.02066 11.8441 1.85905 11.6358 1.70728 11.4596C1.39844 11.1009 0.938475 10.6364 0.240071 10.4636L-0.240071 12.4052C-0.169244 12.4227 -0.0522815 12.4812 0.191761 12.7646C0.316426 12.9094 0.425258 13.0518 0.58749 13.2529C0.737305 13.4385 0.915259 13.6513 1.12366 13.8574C1.552 14.2811 2.11812 14.6861 2.91147 14.8698C3.69165 15.0504 4.59484 14.9947 5.66912 14.6759L5.10011 12.7585ZM-0.390321 12.3551L4.99429 14.6379L5.77494 12.7965L0.390321 10.5137L-0.390321 12.3551ZM11.7692 16V13.0552H9.76923V16H11.7692ZM11.7661 13.1345C11.8063 12.6285 11.7372 12.12 11.5635 11.643L9.6842 12.3273C9.75988 12.5351 9.78985 12.7562 9.77238 12.9759L11.7661 13.1345ZM11.5635 11.643C11.3899 11.1661 11.1158 10.7319 10.7604 10.3692L9.33195 11.7691C9.48866 11.929 9.60851 12.1194 9.6842 12.3273L11.5635 11.643ZM10.1558 12.0631C11.4183 11.9239 12.9005 11.6042 14.0683 10.6328C15.2867 9.61943 16 8.03984 16 5.74261H14C14 7.60008 13.4441 8.5506 12.7894 9.09522C12.0841 9.68185 11.0894 9.94806 9.93656 10.0752L10.1558 12.0631ZM16 5.74243C15.9998 4.42001 15.4854 3.15032 14.5667 2.19567L13.1256 3.58254C13.6879 4.16681 13.9999 4.94042 14 5.7428L16 5.74243ZM14.7818 3.24209C15.2242 2.06948 15.1928 0.77293 14.6945 -0.377181L12.8594 0.417956C13.1512 1.09157 13.1695 1.84978 12.9105 2.53613L14.7818 3.24209ZM13.7769 0.0203878C14.0585 -0.939161 14.0575 -0.939442 14.0565 -0.939723C14.0562 -0.939817 14.0553 -0.940098 14.0546 -0.940287C14.0533 -0.940663 14.052 -0.941042 14.0506 -0.941422C14.048 -0.942182 14.0452 -0.942947 14.0425 -0.943718C14.0369 -0.945259 14.0311 -0.946819 14.025 -0.948391C14.0128 -0.951535 13.9997 -0.954721 13.9857 -0.957888C13.9575 -0.964224 13.9255 -0.970464 13.8897 -0.97612C13.8179 -0.987446 13.7312 -0.996328 13.6295 -0.999097C13.4255 -1.00465 13.1652 -0.985525 12.8461 -0.915436C12.2095 -0.775633 11.3441 -0.434481 10.2166 0.31315L11.3219 1.97999C12.2944 1.33511 12.9328 1.11317 13.2751 1.03801C13.4453 1.00062 13.5432 0.999295 13.5751 1.00016C13.5912 1.0006 13.5919 1.00165 13.578 0.999447C13.5711 0.998354 13.5606 0.996477 13.5468 0.993362C13.5399 0.991806 13.5321 0.989944 13.5235 0.987724C13.5192 0.986613 13.5147 0.985414 13.5101 0.984118C13.5077 0.98347 13.5053 0.982798 13.5029 0.982102C13.5016 0.981753 13.5004 0.981399 13.4992 0.981038C13.4985 0.980857 13.4976 0.980583 13.4973 0.980492C13.4963 0.980215 13.4954 0.979937 13.7769 0.0203878ZM11.0282 0.18068C9.09547 -0.337476 7.05837 -0.337476 5.12566 0.18068L5.64357 2.11246C7.237 1.68526 8.91685 1.68526 10.5103 2.11246L11.0282 0.18068ZM5.93726 0.31315C4.80978 -0.434481 3.94437 -0.775633 3.30777 -0.915436C2.98862 -0.985525 2.72833 -1.00465 2.52435 -0.999097C2.42262 -0.996328 2.33599 -0.987446 2.26419 -0.97612C2.22835 -0.970464 2.19636 -0.964224 2.16818 -0.957888C2.15411 -0.954721 2.141 -0.951535 2.12886 -0.948391C2.12279 -0.946819 2.11697 -0.945259 2.11139 -0.943718C2.1086 -0.942947 2.10587 -0.942182 2.1032 -0.941422C2.10187 -0.941042 2.10055 -0.940663 2.09925 -0.940287C2.09859 -0.940098 2.09763 -0.939817 2.0973 -0.939723C2.09634 -0.939442 2.09538 -0.939161 2.37692 0.0203878C2.65847 0.979937 2.65751 0.980215 2.65657 0.980492C2.65625 0.980583 2.65531 0.980857 2.65468 0.981038C2.65344 0.981399 2.6522 0.981753 2.65098 0.982102C2.64853 0.982798 2.64614 0.98347 2.64379 0.984118C2.6391 0.985414 2.63461 0.986613 2.63032 0.987724C2.62175 0.989944 2.61399 0.991806 2.60707 0.993362C2.59323 0.996477 2.58279 0.998354 2.57586 0.999447C2.56191 1.00165 2.5626 1.0006 2.57878 1.00016C2.61062 0.999295 2.7085 1.00062 2.87877 1.03801C3.22102 1.11317 3.85945 1.33511 4.83197 1.97999L5.93726 0.31315ZM1.45935 -0.377181C0.961027 0.77293 0.929678 2.06948 1.37206 3.24209L3.24332 2.53613C2.98439 1.84978 3.00263 1.09157 3.2945 0.417956L1.45935 -0.377181ZM1.58719 2.19566C0.661573 3.15739 0.146701 4.43857 0.153861 5.77081L2.15383 5.76007C2.14949 4.95175 2.4617 4.17116 3.0282 3.58256L1.58719 2.19566ZM0.153846 5.76544C0.153846 8.05068 0.869205 9.62111 2.08551 10.6328C3.24981 11.6013 4.72811 11.93 5.98574 12.0845L6.22964 10.0994C5.07189 9.95719 4.07327 9.68478 3.36449 9.09522C2.70772 8.54892 2.15385 7.60446 2.15385 5.76544H0.153846ZM5.39287 10.3927C5.04157 10.7518 4.77 11.1807 4.59648 11.6518L6.47323 12.343C6.54887 12.1377 6.66765 11.9496 6.82252 11.7913L5.39287 10.3927ZM4.59648 11.6518C4.42294 12.123 4.35153 12.6253 4.38713 13.1261L6.3821 12.9843C6.36664 12.7668 6.3976 12.5484 6.47323 12.343L4.59648 11.6518ZM4.38462 13.0552V16H6.38462V13.0552H4.38462Z" fill="black" mask="url(#path-1-inside-1)"/>
</svg>
