<svg xmlns="http://www.w3.org/2000/svg" width="15" height="15" fill="none" viewBox="0 0 15 15"><path fill="#000" stroke="#000" stroke-linecap="round" stroke-linejoin="round" d="M10.5 5C11.5609 5 12.5783 5.42143 13.3284 6.17157C14.0786 6.92172 14.5 7.93913 14.5 9V13.75H12.5V9C12.5 8.46957 12.2893 7.96086 11.9142 7.58579C11.5391 7.21071 11.0304 7 10.5 7C9.96957 7 9.46086 7.21071 9.08579 7.58579C8.71071 7.96086 8.5 8.46957 8.5 9V13.75H6.5V9C6.5 7.93913 6.92143 6.92172 7.67157 6.17157C8.42172 5.42143 9.43913 5 10.5 5Z"/><path fill="#000" stroke="#000" stroke-linecap="round" stroke-linejoin="round" d="M0.5 13.75V5.75H2.5V13.75H0.5Z"/><path fill="#000" stroke="#000" stroke-linecap="round" stroke-linejoin="round" d="M2.5 1.5C2.5 2.05228 2.05228 2.5 1.5 2.5C0.947715 2.5 0.5 2.05228 0.5 1.5C0.5 0.947715 0.947715 0.5 1.5 0.5C2.05228 0.5 2.5 0.947715 2.5 1.5Z"/></svg>