<svg width="17" height="17" viewBox="0 0 17 17" fill="none" xmlns="http://www.w3.org/2000/svg">
<path d="M10.3288 1.77453C10.2277 1.77239 10.1281 1.79915 10.0417 1.85167C9.95525 1.90419 9.8856 1.98029 9.84093 2.07102C9.79626 2.16175 9.7784 2.26334 9.78947 2.36387C9.80054 2.46439 9.84007 2.55967 9.90342 2.63851L13.6097 7.38309C13.6965 7.49418 13.8238 7.56624 13.9637 7.58343C14.1037 7.60062 14.2447 7.56152 14.3557 7.47475C14.4668 7.38797 14.5389 7.26062 14.5561 7.12072C14.5733 6.98081 14.5342 6.8398 14.4474 6.72872L10.7404 1.98413C10.692 1.92047 10.6299 1.86856 10.5586 1.83227C10.4873 1.79598 10.4088 1.77624 10.3288 1.77453ZM8.28269 3.77087C8.17258 3.77156 8.06541 3.80645 7.97599 3.8707C7.88657 3.93495 7.81932 4.0254 7.78355 4.12954C7.74777 4.23368 7.74523 4.34636 7.77629 4.452C7.80734 4.55764 7.87045 4.65102 7.95688 4.71924L12.6364 8.50854C12.6905 8.55411 12.7531 8.58843 12.8205 8.60951C12.888 8.63058 12.959 8.63799 13.0294 8.63128C13.0997 8.62458 13.168 8.6039 13.2303 8.57046C13.2926 8.53702 13.3475 8.4915 13.392 8.43655C13.4365 8.3816 13.4695 8.31833 13.4892 8.25045C13.5089 8.18257 13.5149 8.11144 13.5067 8.04123C13.4986 7.97102 13.4765 7.90314 13.4418 7.84156C13.4071 7.77998 13.3605 7.72594 13.3047 7.68261L8.62579 3.894C8.52952 3.81378 8.408 3.77017 8.28269 3.77087ZM6.73805 6.17326C6.61874 6.17704 6.50417 6.22089 6.41283 6.29774C6.32148 6.3746 6.25868 6.47997 6.23455 6.59688C6.21041 6.71379 6.22635 6.83542 6.2798 6.94217C6.33325 7.04891 6.42108 7.13454 6.52915 7.18526L11.9406 9.82422C12.0033 9.8548 12.0714 9.87272 12.1411 9.87697C12.2107 9.88122 12.2805 9.8717 12.3465 9.84897C12.4125 9.82623 12.4734 9.79072 12.5256 9.74447C12.5779 9.69821 12.6205 9.64212 12.6511 9.57938C12.6816 9.51665 12.6995 9.44851 12.7038 9.37886C12.708 9.3092 12.6985 9.23939 12.6757 9.17342C12.653 9.10745 12.6175 9.0466 12.5712 8.99436C12.5249 8.94211 12.4688 8.89949 12.4061 8.86893L6.99468 6.22998C6.91524 6.18988 6.827 6.17037 6.73805 6.17326ZM5.82635 8.85787C5.69354 8.85253 5.56355 8.89718 5.46204 8.98299C5.36053 9.0688 5.29487 9.18954 5.27802 9.32139C5.26117 9.45324 5.29435 9.58661 5.37102 9.69519C5.44769 9.80377 5.56227 9.87967 5.69215 9.90792L11.5587 11.2623C11.6276 11.2807 11.6995 11.285 11.7701 11.275C11.8407 11.265 11.9085 11.241 11.9696 11.2042C12.0307 11.1674 12.0838 11.1188 12.1256 11.0611C12.1675 11.0034 12.1973 10.9378 12.2134 10.8684C12.2294 10.7989 12.2313 10.7269 12.2189 10.6567C12.2065 10.5865 12.1801 10.5195 12.1413 10.4597C12.1025 10.3999 12.052 10.3485 11.9929 10.3086C11.9339 10.2687 11.8674 10.2411 11.7974 10.2275L5.93149 8.87309C5.89704 8.86451 5.86182 8.85941 5.82635 8.85787ZM3.00201 10.6176C2.86123 10.6198 2.72709 10.6778 2.62903 10.7789C2.53098 10.8799 2.47704 11.0157 2.47906 11.1565V13.9898C2.47906 14.668 3.04043 15.2294 3.71864 15.2294H13.2811C13.9594 15.2294 14.5207 14.668 14.5207 13.9898V11.1565C14.5217 11.0861 14.5087 11.0162 14.4825 10.9509C14.4562 10.8855 14.4172 10.8261 14.3678 10.776C14.3184 10.7258 14.2595 10.686 14.1945 10.6588C14.1296 10.6317 14.0599 10.6177 13.9895 10.6177C13.9191 10.6177 13.8494 10.6317 13.7844 10.6588C13.7195 10.686 13.6606 10.7258 13.6111 10.776C13.5617 10.8261 13.5227 10.8855 13.4965 10.9509C13.4702 11.0162 13.4572 11.0861 13.4582 11.1565V13.9898C13.4582 14.0943 13.3856 14.1669 13.2811 14.1669H3.71864C3.61415 14.1669 3.54156 14.0943 3.54156 13.9898V11.1565C3.54258 11.0854 3.52931 11.0148 3.50255 10.9489C3.47579 10.883 3.43607 10.8232 3.38576 10.7729C3.33544 10.7227 3.27555 10.6831 3.20963 10.6564C3.14371 10.6297 3.07311 10.6165 3.00201 10.6176ZM5.48948 11.6877C5.41908 11.6867 5.34919 11.6998 5.28386 11.726C5.21853 11.7523 5.15907 11.7912 5.10894 11.8407C5.05881 11.8901 5.019 11.949 4.99182 12.0139C4.96465 12.0789 4.95066 12.1486 4.95066 12.219C4.95066 12.2894 4.96465 12.3591 4.99182 12.424C5.019 12.489 5.05881 12.5479 5.10894 12.5973C5.15907 12.6468 5.21853 12.6857 5.28386 12.712C5.34919 12.7382 5.41908 12.7512 5.48948 12.7502H11.5103C11.5807 12.7512 11.6506 12.7382 11.7159 12.712C11.7813 12.6857 11.8407 12.6468 11.8908 12.5973C11.941 12.5479 11.9808 12.489 12.008 12.424C12.0351 12.3591 12.0491 12.2894 12.0491 12.219C12.0491 12.1486 12.0351 12.0789 12.008 12.0139C11.9808 11.949 11.941 11.8901 11.8908 11.8407C11.8407 11.7912 11.7813 11.7523 11.7159 11.726C11.6506 11.6998 11.5807 11.6867 11.5103 11.6877H5.48948Z" fill="black"/>
</svg>
